<mxfile host="Electron" modified="2023-05-25T08:48:18.791Z" agent="Mozilla/5.0 (Windows NT 10.0; Win64; x64) AppleWebKit/537.36 (KHTML, like Gecko) draw.io/21.2.8 Chrome/112.0.5615.165 Electron/24.2.0 Safari/537.36" etag="eaaB5tovbK1aTRxefumx" version="21.2.8" type="device">
  <diagram name="Strona-1" id="OZjFsq6HEsXJ0vkOd96a">
    <mxGraphModel dx="1051" dy="705" grid="1" gridSize="10" guides="1" tooltips="1" connect="1" arrows="1" fold="1" page="1" pageScale="1" pageWidth="827" pageHeight="1169" math="0" shadow="0">
      <root>
        <mxCell id="0" />
        <mxCell id="1" parent="0" />
        <mxCell id="PTmPjNA2xMps1Y_KjTwl-4" value="" style="edgeStyle=orthogonalEdgeStyle;rounded=0;orthogonalLoop=1;jettySize=auto;html=1;" edge="1" parent="1" source="PTmPjNA2xMps1Y_KjTwl-1" target="PTmPjNA2xMps1Y_KjTwl-3">
          <mxGeometry relative="1" as="geometry" />
        </mxCell>
        <mxCell id="PTmPjNA2xMps1Y_KjTwl-1" value="&lt;b&gt;Jakość usługi (Service quality)&lt;/b&gt;" style="ellipse;whiteSpace=wrap;html=1;" vertex="1" parent="1">
          <mxGeometry x="80" y="80" width="130" height="80" as="geometry" />
        </mxCell>
        <mxCell id="PTmPjNA2xMps1Y_KjTwl-5" style="edgeStyle=orthogonalEdgeStyle;rounded=0;orthogonalLoop=1;jettySize=auto;html=1;entryX=0;entryY=0.5;entryDx=0;entryDy=0;" edge="1" parent="1" source="PTmPjNA2xMps1Y_KjTwl-2" target="PTmPjNA2xMps1Y_KjTwl-3">
          <mxGeometry relative="1" as="geometry" />
        </mxCell>
        <mxCell id="PTmPjNA2xMps1Y_KjTwl-2" value="&lt;b&gt;Poświęcenie (&lt;i&gt;Sacrifice&lt;/i&gt;)&lt;/b&gt;" style="ellipse;whiteSpace=wrap;html=1;" vertex="1" parent="1">
          <mxGeometry x="80" y="240" width="130" height="80" as="geometry" />
        </mxCell>
        <mxCell id="PTmPjNA2xMps1Y_KjTwl-7" value="" style="edgeStyle=orthogonalEdgeStyle;rounded=0;orthogonalLoop=1;jettySize=auto;html=1;" edge="1" parent="1" source="PTmPjNA2xMps1Y_KjTwl-3" target="PTmPjNA2xMps1Y_KjTwl-6">
          <mxGeometry relative="1" as="geometry" />
        </mxCell>
        <mxCell id="PTmPjNA2xMps1Y_KjTwl-3" value="&lt;b&gt;Wartość &lt;br&gt;(&lt;i&gt;Value&lt;/i&gt;)&lt;/b&gt;" style="ellipse;whiteSpace=wrap;html=1;" vertex="1" parent="1">
          <mxGeometry x="280" y="160" width="130" height="80" as="geometry" />
        </mxCell>
        <mxCell id="PTmPjNA2xMps1Y_KjTwl-6" value="&lt;b&gt;Intencja zakupu (&lt;i&gt;Purchase intention&lt;/i&gt;)&lt;/b&gt;" style="ellipse;whiteSpace=wrap;html=1;" vertex="1" parent="1">
          <mxGeometry x="480" y="160" width="130" height="80" as="geometry" />
        </mxCell>
      </root>
    </mxGraphModel>
  </diagram>
</mxfile>
